inDegrees=no
num_controls=7
num_derivatives=13
num_iterations=88
num_multipliers=7
num_parameters=0
num_slacks=7
num_states=26
objective=5.298810
objective_accelerations=0.444672
objective_balance=0.011805
objective_effort=0.381814
objective_height=4.390597
objective_ligament=0.069923
solver_duration=756.988268
status=Solve_Succeeded
success=true
DataType=double
version=3
OpenSimVersion=4.4-2022-07-23-0e9fedc
endheader
time	/jointset/ground_pelvis/pelvis_tilt/value	/jointset/ground_pelvis/pelvis_tx/value	/jointset/ground_pelvis/pelvis_ty/value	/jointset/hip_r/hip_flexion_r/value	/jointset/hip_r/hip_adduction_r/value	/jointset/hip_r/hip_rotation_r/value	/jointset/back/lumbar_extension/value	/jointset/patellofemoral_r/patellar_flexion_r/value	/jointset/knee_r/knee_flexion_r/value	/jointset/knee_r/knee_adduction_r/value	/jointset/knee_r/knee_rotation_r/value	/jointset/ankle_r/ankle_angle_r/value	/jointset/subtalar_r/subtalar_angle_r/value	/jointset/ground_pelvis/pelvis_tilt/speed	/jointset/ground_pelvis/pelvis_tx/speed	/jointset/ground_pelvis/pelvis_ty/speed	/jointset/hip_r/hip_flexion_r/speed	/jointset/hip_r/hip_adduction_r/speed	/jointset/hip_r/hip_rotation_r/speed	/jointset/back/lumbar_extension/speed	/jointset/patellofemoral_r/patellar_flexion_r/speed	/jointset/knee_r/knee_flexion_r/speed	/jointset/knee_r/knee_adduction_r/speed	/jointset/knee_r/knee_rotation_r/speed	/jointset/ankle_r/ankle_angle_r/speed	/jointset/subtalar_r/subtalar_angle_r/speed	/forceset/tau_hip_flexion_r	/forceset/tau_hip_adduction_r	/forceset/tau_hip_rotation_r	/forceset/tau_knee_flexion_r	/forceset/tau_ankle_angle_r	/forceset/tau_subtalar_angle_r	/forceset/tau_lumbar_extension	lambda_cid13_p0	lambda_cid14_p0	lambda_cid14_p1	lambda_cid14_p2	lambda_cid14_p3	lambda_cid14_p4	lambda_cid14_p5	/jointset/ground_pelvis/pelvis_tilt/accel	/jointset/ground_pelvis/pelvis_tx/accel	/jointset/ground_pelvis/pelvis_ty/accel	/jointset/hip_r/hip_flexion_r/accel	/jointset/hip_r/hip_adduction_r/accel	/jointset/hip_r/hip_rotation_r/accel	/jointset/back/lumbar_extension/accel	/jointset/patellofemoral_r/patellar_flexion_r/accel	/jointset/knee_r/knee_flexion_r/accel	/jointset/knee_r/knee_adduction_r/accel	/jointset/knee_r/knee_rotation_r/accel	/jointset/ankle_r/ankle_angle_r/accel	/jointset/subtalar_r/subtalar_angle_r/accel	gamma_cid13_p0	gamma_cid14_p0	gamma_cid14_p1	gamma_cid14_p2	gamma_cid14_p3	gamma_cid14_p4	gamma_cid14_p5
0.5	-0.08615897853064559	0.04458944953049618	0.8344542444537169	0.753426869308804	-0.2143765030591907	-0.1561095917310182	-0.6347353085080391	0.8617417364797973	0.86174173647979	-0.06092594558596049	0.17452874985266	0.2880585863984139	0.1496450776670671	-0.2363762375291666	-0.170071479051599	-0.3887385480328981	1.491068905840083	-0.02009588581271135	0.1321596906190079	-0.7384200276914373	1.679711730601601	1.679711730601665	-0.4244220431883619	-5.302629195695276e-05	0.5263257386734531	0.1848285090684329	-0.1651893181668653	0.01112143804593275	0.01623637066032647	-0.2811309957679667	-0.004231606636962122	-0.002764158949367462	0.22081750447245	-13.52809372463073	-44.50836648190175	-7.58210572037117	0.01850056349017646	-3.000247276496795	-647.2015280229006	61.01065373489822	0.1537985709769078	0.4802345283468307	-0.3048184962100986	-1.124746789777396	-0.2073763005209993	-0.5992316708048649	1.645979019030406	-1.252369976192836	-1.252369976192758	0.3754154570751242	0.001909057733717016	-0.4180592510536114	-0.2939664945229162	-7.448484593877057e-08	-8.530189649970629e-08	2.447675561034125e-07	-1.09559232816645e-06	1.819759275709231e-08	-1.463529235435548e-07	3.760227953187451e-07
0.51	-0.08851439270739896	0.04291267566537123	0.8305524566995779	0.7682792552180924	-0.2145884072667801	-0.1548167305856134	-0.6420365648914795	0.8784741112992359	0.8784741112995347	-0.0651489367121079	0.1745286169123434	0.2932997010987121	0.1514771305191556	-0.2346504339667948	-0.1652916670425896	-0.3915354031982636	1.479223731274438	-0.02227363676117862	0.1264422256700498	-0.7217540708144553	1.666544221439951	1.66654422143997	-0.4201300207478532	1.845863796381949e-05	0.5217952507543523	0.1815427852546936	-0.1712866330106571	0.01356692755077285	0.0163670430379097	-0.2833044975572294	-0.008255168435823352	-0.002582962613313028	0.2263652443097528	-12.67094473772488	-46.0707734677643	-7.932475585740506	0.2519744460739665	-1.992109107597893	-650.9065680060712	60.4068867922584	0.1903862602274289	0.4755994371522854	-0.2546087340630345	-1.242096650586779	-0.2214229312817999	-0.5537255140453254	1.688480749200533	-1.381775603893062	-1.381775603900123	0.4630528848511284	0.008367262926037653	-0.4858521494454454	-0.3518395646331366	-7.573614391952429e-08	-6.106162645417911e-08	4.361432986257804e-07	-8.664921110438096e-07	-1.661316548393191e-08	-1.202522567859201e-07	4.529631040126935e-07
0.52	-0.09085086584623793	0.04128344890033085	0.8266252024523122	0.7830076506096008	-0.2148217786716964	-0.1535801884111064	-0.6491688463607178	0.8950682441837992	0.8950682441837724	-0.06932761616444225	0.174528918631691	0.2984924492023919	0.1532751332851423	-0.2325880299500717	-0.1605620590346851	-0.3938318466581341	1.466270802283603	-0.02438932528061349	0.1208958964369692	-0.704625044850737	1.652063343568627	1.652063343568599	-0.4155597084149092	3.390566015186782e-05	0.5166524193509743	0.1780184918475936	-0.1773839478545388	0.01601241705574852	0.0164977154122784	-0.2854779993468819	-0.01227873023463818	-0.002401766276966402	0.2319129841469753	-11.81527755971817	-47.63631031643771	-8.281821601118695	0.4834895772501253	-0.9956918897728959	-654.6419790826664	59.85665851023431	0.2211186618468466	0.470193728125973	-0.204736155111091	-1.346297674815426	-0.1949638147147925	-0.5650045276293665	1.738592836377576	-1.515043718127954	-1.515043718127942	0.4310734355622142	-0.009298523812943495	-0.5405279479088823	-0.3416804131949762	-5.132513820069575e-08	-8.83958347747205e-09	5.290305599016945e-07	-3.394125104976785e-07	-5.886581163905409e-08	-6.3716674694988e-08	4.309391934816898e-07
0.53	-0.09316555341867798	0.03970158183917583	0.8226775157300087	0.7976011494463936	-0.2150756178924324	-0.1523995975622973	-0.6561273965137704	0.9115109182104107	0.9115109182099987	-0.07346089088089242	0.1745294271092432	0.3036313121657241	0.1550375289101061	-0.2303244056975026	-0.1557865281797161	-0.3956152156972441	1.45222646015786	-0.02637692238190697	0.1152639442903341	-0.6870191329364861	1.636257629248695	1.636257629248615	-0.4110209760314335	6.127536021625376e-05	0.5110687191041682	0.1744259299661883	-0.1817499485260952	0.0158666215832254	0.01702959196983634	-0.2910847829054368	-0.01156544289058922	-0.001736105948001512	0.236395771088993	-10.96346929391137	-47.62134623872849	-8.158306836447453	0.6559242971643611	-1.497207381010932	-658.5018280398806	60.72677177980901	0.2327467704198631	0.4849403053017289	-0.1516017666948321	-1.463876962962428	-0.2003942156985196	-0.556090907274068	1.781468292272406	-1.645402458690087	-1.645402458698093	0.4764874575526304	0.00778267426336788	-0.5750268590591747	-0.3731665993586051	-4.009438973299424e-08	2.628005434952731e-08	6.620528340789795e-07	-9.962309550264766e-10	-9.295744401855684e-08	-3.102894565294016e-08	4.73102076440864e-07
0.54	-0.09545685225589015	0.03816821159479455	0.8187147024196366	0.8120481299656097	-0.2153492803957471	-0.1512740863048824	-0.6629079119630148	0.9277891216595018	0.9277891216595858	-0.07754653540982498	0.1745300148752545	0.3087127909674127	0.1567629744115081	-0.2279102829065887	-0.1508626956799326	-0.3968571642716878	1.4369671387718	-0.02835398179746416	0.1098799781798205	-0.669018104089293	1.619169228138213	1.619169228138081	-0.4060336709353459	4.976335417961725e-05	0.5051755870176559	0.1706284671349228	-0.1861159491977999	0.01572082611011645	0.017561468532109	-0.2966915664633587	-0.01085215554664376	-0.001070445619965722	0.240878558030899	-10.11747681039001	-47.60914016038308	-8.030027893072644	0.8216067451933888	-2.020926722845009	-662.4245890546015	61.62788601288845	0.2512183695155925	0.4998540570890341	-0.09645206217782124	-1.589293526878589	-0.192856277567037	-0.5154073204049324	1.81761622296589	-1.771581076237901	-1.771581076237899	0.5207879780846471	-0.01707486503312205	-0.6024143158499687	-0.3826606031669898	-4.344605354313556e-08	4.247788222365837e-08	8.394798033811857e-07	1.28686161519944e-07	-1.180198696675869e-07	-2.472607530327527e-08	5.862801351764061e-07
0.55	-0.0977230515555926	0.03668455957239361	0.8147421745888431	0.8263366231946238	-0.2156425503275004	-0.1502018871771345	-0.6695066989938457	0.9438900979801402	0.9438900979805254	-0.08158079873689718	0.1745307358261421	0.3137336011634718	0.1584495009675203	-0.2252917928818433	-0.145868990987493	-0.397560044914966	1.420556866610455	-0.03028709845880889	0.104601961335022	-0.6506885105166201	1.600828444572332	1.600828444572359	-0.4007652008213911	8.142049547728828e-05	0.4989145668952066	0.1666492084425958	-0.1911788878678606	0.01708741133299398	0.01783023016297858	-0.3004360428124507	-0.01270842033693203	-0.0008215257047222094	0.2456739291788864	-9.279027051859826	-48.46742492852315	-8.241177303002738	1.048280298794773	-1.628702624963283	-666.1853051021786	61.58927171263397	0.272837341739824	0.4989100094297174	-0.04395677719504285	-1.693083151223089	-0.19152096172428	-0.5277277201017018	1.848249658341803	-1.894956657768012	-1.894956657744271	0.5380703832595616	0.01140296991966602	-0.648757271088751	-0.4095335665728377	-4.457253047889119e-08	5.459934678831481e-08	9.53164905590505e-07	2.155763464461651e-07	-1.35192435781933e-07	-2.077695563661326e-08	6.656587724339928e-07
0.5600000000000001	-0.09996193135047014	0.03525080086373829	0.8107652678092575	0.8404557758839269	-0.2159547477461223	-0.1491812139885454	-0.6759206663421659	0.9598017405331324	0.9598017405333575	-0.08556073859181382	0.174531396741731	0.3186896388761746	0.1600954399237478	-0.2224463819457144	-0.1408840329308082	-0.3977329540299218	1.403099030830643	-0.03213947917244905	0.09957479034686251	-0.6320541675869933	1.58130247456627	1.581302474566456	-0.3951689764991315	3.775628517749404e-05	0.4922210903469125	0.162510947177956	-0.1962418265380579	0.01845399655593549	0.01809899179175631	-0.3041805191618226	-0.01456468512719592	-0.0005726057893458751	0.25046930032676	-8.463833881363838	-49.32869643500503	-8.449348565753144	1.270481031639048	-1.251183671235165	-669.9937890525642	61.57072586324664	0.2966025517920099	0.4981047299381793	0.009542243486654573	-1.798806250572113	-0.1767090880263249	-0.4652381490771807	1.878566094356619	-2.008618364274203	-2.008618364274317	0.5863388197456683	-0.03213913535257659	-0.6889056010188185	-0.4144611176295538	-4.302878316538411e-08	6.182917538160187e-08	9.903597672883628e-07	2.511158823138886e-07	-1.428971704546586e-07	-1.965233678955461e-08	7.044781039180343e-07
0.5700000000000001	-0.1021713129805905	0.03386686023284424	0.8067893066281004	0.8543951570999846	-0.2162850959830877	-0.1482097488342468	-0.6821469308981666	0.9755122126985883	0.9755122126987322	-0.08948313834981939	0.1745314718255141	0.3235766525042323	0.1616991662593794	-0.2193991037281746	-0.1359035841500296	-0.397368302929234	1.384603535353451	-0.0339197487645073	0.09476054792710462	-0.6131657312887561	1.560598125557993	1.560598125557952	-0.3892471731026292	-2.53236558852741e-05	0.4851181613221284	0.158204767955174	-0.2008140956304622	0.01905429373904773	0.01840369519552268	-0.3085756233731372	-0.01565201945605262	-9.021538740583879e-05	0.2548857513742731	-7.692462461872059	-49.91597392319685	-8.486261687795599	1.440376604053591	-1.089736136739197	-673.7609848767466	62.00392781147895	0.3134238632151504	0.4980618659429965	0.06356963095709954	-1.900963568413774	-0.1770298279710286	-0.4832141740875943	1.898934246107715	-2.130409682281959	-2.1304096823161	0.6048034434117801	0.006306660866649797	-0.7305373758448269	-0.4429386841846327	-3.965628683470414e-08	6.710147847460564e-08	9.879359651537621e-07	2.786735960424095e-07	-1.454896436851569e-07	-1.684587228582377e-08	7.156447328204468e-07
0.58	-0.1043492951472065	0.03253273347251664	0.8028197205754689	0.8681443748868423	-0.2166329157025903	-0.1472851654813459	-0.6881833207214725	0.9910098280712785	0.9910098280714977	-0.09334437960505224	0.1745308559267835	0.3283907266775284	0.1632589823308666	-0.216166489251463	-0.1309212588175143	-0.3964579283246089	1.365066344991388	-0.03563377568351857	0.09019843008078804	-0.5940792210484999	1.538731116022637	1.538731116022372	-0.3829372759537279	-0.0001004402229172008	0.4776331993918916	0.153728894349072	-0.2053863647230361	0.01965459092190343	0.01870839860061256	-0.3129707275842698	-0.01673935378495263	0.0003921750140820238	0.2593022024216525	-6.965107781575996	-50.50455280688661	-8.517017265533507	1.6019979272227	-0.9498282565103378	-677.5686489283438	62.4596875777524	0.333669803626175	0.4984800402855959	0.118686944274115	-2.007145227546574	-0.163460553416896	-0.4148132343890975	1.91818088276032	-2.241150469689931	-2.241150469689807	0.6639575702255581	-0.03454646054605952	-0.765312182109269	-0.4483999942937361	-3.390216387700848e-08	6.982444603235682e-08	9.339157636094506e-07	2.958363786128992e-07	-1.41424288060662e-07	-1.184909715945019e-08	6.90798539756088e-07
0.59	-0.1064940600130239	0.03124840360021814	0.7988619620110785	0.8816931312088587	-0.2169974600507124	-0.1464049926530399	-0.6940278947814781	1.006283074305839	1.006283074306205	-0.09714079464680959	0.1745293603956774	0.3331281221254968	0.164773344245646	-0.2127557785527749	-0.1259475316001251	-0.3950025561940363	1.344516650823869	-0.03726011449579743	0.08586767766103565	-0.57481022812376	1.515732484250265	1.515732484250302	-0.376296239620138	-0.0001962944978913252	0.4697886553259936	0.1491231873721551	-0.2098431945042821	0.02055393864321369	0.01894669182967463	-0.317277842031892	-0.0178632371945495	0.0006699663115448766	0.2635792916038055	-6.28153262992437	-51.12054168415806	-8.660377680280288	1.803213819956617	-0.7395815599111523	-681.2889384937411	62.65377012043255	0.3493855615935438	0.4963688602996739	0.1726448169911891	-2.104111874417706	-0.1598850947586019	-0.4375052686873909	1.935062921619574	-2.357060420632275	-2.357060420587221	0.6717152236731174	0.003342878697325254	-0.8026357353002401	-0.4695239162274675	-2.959623298179484e-08	7.17577286113857e-08	8.88695710438938e-07	3.002151798790419e-07	-1.381246548043273e-07	-7.480276876499837e-09	6.723060045973224e-07
